<?xml version="1.0" encoding="UTF-8" standalone="no"?>
<svg width="29px" height="36px" viewBox="0 0 29 36" version="1.1" xmlns="http://www.w3.org/2000/svg" xmlns:xlink="http://www.w3.org/1999/xlink">
    <!-- Generator: Sketch 3.8.3 (29802) - http://www.bohemiancoding.com/sketch -->
    <title>Artboard 2</title>
    <desc>Created with Sketch.</desc>
    <defs></defs>
    <g id="Page-1" stroke="none" stroke-width="1" fill="none" fill-rule="evenodd">
        <g id="Artboard-2">
            <g id="Group-2" transform="translate(2.000000, 2.000000)">
                <rect id="Rectangle-1-Copy-2" fill="#FFE3CB" x="0" y="0" width="25" height="32" rx="2"></rect>
                <g id="Group" transform="translate(3.000000, 4.500000)" fill="#FF851B">
                    <rect id="Rectangle-3-Copy-8" x="0" y="3" width="10" height="2"></rect>
                    <rect id="Rectangle-3-Copy-22" x="11" y="3" width="5" height="2"></rect>
                    <rect id="Rectangle-3-Copy-9" x="0" y="0" width="15" height="2"></rect>
                    <rect id="Rectangle-3-Copy-10" x="0" y="6" width="6" height="2"></rect>
                    <rect id="Rectangle-3-Copy-16" x="11" y="6" width="7" height="2"></rect>
                    <rect id="Rectangle-3-Copy-11" x="0" y="9" width="3" height="2"></rect>
                    <rect id="Rectangle-3-Copy-18" x="4" y="9" width="15" height="2"></rect>
                    <rect id="Rectangle-3-Copy-12" x="0" y="12" width="13" height="2"></rect>
                    <rect id="Rectangle-3-Copy-20" x="14" y="12" width="2" height="2"></rect>
                    <rect id="Rectangle-3-Copy-13" x="0" y="15" width="6" height="2"></rect>
                    <rect id="Rectangle-3-Copy-17" x="11" y="15" width="7" height="2"></rect>
                    <rect id="Rectangle-3-Copy-14" x="0" y="18" width="19" height="2"></rect>
                    <rect id="Rectangle-3-Copy-15" x="0" y="21" width="7" height="2"></rect>
                    <rect id="Rectangle-3-Copy-19" x="11" y="21" width="5" height="2"></rect>
                    <rect id="Rectangle-3-Copy-21" x="8" y="21" width="2" height="2"></rect>
                </g>
            </g>
        </g>
    </g>
</svg>